<svg data-v-423bf9ae="" xmlns="http://www.w3.org/2000/svg" viewBox="0 0 339.41915693691783 199" class="iconAboveSlogan"><!----><!----><!----><g data-v-423bf9ae="" id="fd064520-512b-4150-8db6-44aba343447c" fill="black" transform="matrix(4.70957612991333,0,0,4.70957612991333,-4.897959232330322,99.70330047607422)"><path d="M4.24 10.50C7.66 10.50 8.29 8.81 8.29 5.56C8.29 2.39 7.56 0.98 4.24 0.98L1.04 0.98L1.04 10.50ZM6.30 5.56C6.30 7.67 6.12 8.82 4.24 8.82L2.97 8.82L2.97 2.66L4.24 2.66C6.12 2.66 6.30 3.47 6.30 5.56ZM15.16 5.68C15.16 4.05 14.43 3.33 12.61 3.33C11.27 3.33 9.77 3.74 9.77 3.74L9.83 5.04C9.83 5.04 11.54 4.93 12.46 4.93C13.02 4.93 13.29 5.08 13.29 5.68L13.29 6.12L11.79 6.23C10.25 6.34 9.34 6.79 9.34 8.37C9.34 9.86 10.04 10.67 11.51 10.67C12.56 10.67 13.57 10.18 13.57 10.18C14.15 10.57 14.63 10.67 15.57 10.67L15.62 9.25C15.25 9.18 15.19 9.02 15.16 8.60ZM13.29 7.42L13.29 8.92C13.29 8.92 12.52 9.14 11.91 9.14C11.41 9.14 11.23 8.81 11.23 8.32C11.23 7.81 11.52 7.57 12.01 7.53ZM16.95 10.50L18.83 10.50L18.83 3.50L16.95 3.50ZM16.95 2.60L18.83 2.60L18.83 0.70L16.95 0.70ZM20.65 10.50L22.53 10.50L22.53 0.70L20.65 0.70ZM23.70 3.50L25.42 10.50L26.74 10.50L25.97 13.44L27.80 13.44L30.27 3.50L28.42 3.50L27.15 8.90L26.82 8.90L25.55 3.50ZM30.90 10.50L32.91 10.50L32.91 8.18L30.90 8.18ZM37.18 3.33C35.10 3.33 34.23 4.45 34.23 6.93C34.23 9.56 35.06 10.67 37.14 10.67C37.93 10.67 39.42 10.37 39.42 10.37L39.37 8.88C39.37 8.88 38.28 8.99 37.74 8.99C36.40 8.99 36.13 8.50 36.13 6.93C36.13 5.53 36.39 5.01 37.73 5.01C38.26 5.01 39.37 5.12 39.37 5.12L39.42 3.64C39.42 3.64 38.00 3.33 37.18 3.33ZM43.61 3.33C41.17 3.33 40.39 4.83 40.39 6.99C40.39 9.14 41.17 10.67 43.61 10.67C46.05 10.67 46.83 9.14 46.83 6.99C46.83 4.83 46.05 3.33 43.61 3.33ZM43.61 9.07C42.57 9.07 42.29 8.34 42.29 6.99C42.29 5.63 42.57 4.93 43.61 4.93C44.65 4.93 44.93 5.63 44.93 6.99C44.93 8.34 44.65 9.07 43.61 9.07ZM50.08 10.50L50.08 5.26C50.08 5.26 50.71 5.01 51.32 5.01C52.19 5.01 52.30 5.64 52.30 6.90L52.30 10.50L54.18 10.50L54.18 6.87C54.18 6.33 54.12 5.28 54.12 5.28C54.12 5.28 54.87 5.01 55.43 5.01C56.27 5.01 56.41 5.70 56.41 6.76L56.41 10.50L58.28 10.50L58.28 6.71C58.28 4.45 57.72 3.33 55.82 3.33C54.75 3.33 53.47 3.99 53.47 3.99C53.05 3.54 52.50 3.33 51.72 3.33C51.03 3.33 50.06 3.89 50.06 3.89L50.06 3.50L48.20 3.50L48.20 10.50ZM59.86 10.50L61.88 10.50L61.88 8.18L59.86 8.18ZM63.53 13.44L65.41 13.44L65.41 10.56C65.41 10.56 66.05 10.67 66.57 10.67C68.71 10.67 69.75 9.93 69.75 6.94C69.75 4.34 68.84 3.33 66.99 3.33C66.30 3.33 65.39 3.88 65.39 3.88L65.39 3.50L63.53 3.50ZM66.63 5.01C67.37 5.01 67.84 5.53 67.84 6.94C67.84 8.43 67.55 9.04 66.43 9.04C66.04 9.04 65.41 8.96 65.41 8.96L65.41 5.29C65.41 5.29 66.05 5.01 66.63 5.01ZM71.23 10.50L73.11 10.50L73.11 0.70L71.23 0.70Z"></path></g><!----><g data-v-423bf9ae="" id="a997dd77-96ca-4b5e-8591-84d8f7a44de6" transform="matrix(1,0,0,1,131.5,-5)" stroke="none" fill="black"><path d="M49.6 24.3c2.8-6.3 8-10.1 14.4-11.8 2.6-.8 5.4-1.3 8-1.6-3.2-1.9-6.7-3.3-10.3-4.3C57.9 5.6 54 5 50 5c-5.4 0-10.6.9-15.4 2.7C17.3 14 5 30.6 5 50c0 24.8 20.2 45 45 45 6.6 0 13-1.4 18.6-4.1.2-.6.4-1.1.6-1.7-.2-1.1-.3-2.2-.6-3.1-1-3.2-2.2-6.4-3.4-9.6-.8-1.8-2.4-1.8-4.1-1.6-2.6.2-5.4.6-8 .3-4-.4-4.9-2.1-4.8-6.1.1-1.1-.2-2.7-.9-3.5-1.4-1.4-.9-2.4 0-3.6-.2 0-.5-.1-.7-.1-.1-1-.6-2.1-.4-3 .4-2.2 0-3-2.2-3.8-.7-.2-1.3-.4-2-.8-1.8-1-2.2-2.1-1.1-4 1.8-3.2 3.9-6.4 5.6-9.7.6-1 .4-2.6.4-3.9 0-1.4-.7-3-.4-4.4.7-2.6 1.7-5.3 3-8zm-29.1 57c-.7.4-1.5.3-2-.3-.2-.2-3.8-4.6-5.6-11.1-2.5-8.7-.5-16.9 5.6-23.8.3-.3.7-.5 1.1-.5.3 0 .6.1.9.3.7.5.8 1.2.3 1.8-5.6 6.3-7.3 13.5-5.1 21.6 1.7 6.1 5.1 10.3 5.1 10.3.6.5.4 1.3-.3 1.7zm7.8-3.3c-.7.4-1.5.3-2-.3-.1-.2-11.8-14.8 0-28.2.3-.3.7-.5 1.1-.5.3 0 .6.1.9.3.7.5.8 1.2.3 1.8-10.6 11.9-.4 24.7 0 25.3.4.4.3 1.1-.3 1.6zm8.1-2.7c-.7.4-1.5.3-2-.3-.1-.1-9.7-12 0-22.9.3-.3.7-.5 1.1-.5.3 0 .6.1.9.3.7.5.8 1.2.3 1.8-8.3 9.5-.1 19.8 0 19.9.5.5.3 1.3-.3 1.7z"></path></g><!----><g data-v-423bf9ae="" id="963270d9-19fe-4277-a9d0-06f604b8ddc3" fill="black" transform="matrix(1.7774358987808228,0,0,1.7774358987808228,42.2280387878418,193.77342224121094)"><path d="M5.00 7.08L5.87 7.08L5.87 8.93C5.87 8.93 5.28 8.99 4.70 8.99C2.97 8.99 2.62 8.27 2.62 5.74C2.62 3.07 3.11 2.52 4.76 2.52C6.03 2.52 7.71 2.70 7.71 2.70L7.77 1.20C7.77 1.20 5.92 0.81 4.45 0.81C1.64 0.81 0.63 2.27 0.63 5.74C0.63 8.93 1.41 10.67 4.52 10.67C5.77 10.67 7.77 10.35 7.77 10.35L7.77 5.40L5.00 5.40ZM10.22 10.50L12.10 10.50L12.10 6.13L13.89 4.87L12.98 3.61L12.10 4.23L12.10 0.70L10.22 0.70L10.22 5.54L8.60 6.68L9.51 7.94L10.22 7.45ZM17.61 3.33C15.18 3.33 14.39 4.83 14.39 6.99C14.39 9.14 15.18 10.67 17.61 10.67C20.05 10.67 20.83 9.14 20.83 6.99C20.83 4.83 20.05 3.33 17.61 3.33ZM17.61 9.07C16.58 9.07 16.30 8.34 16.30 6.99C16.30 5.63 16.58 4.93 17.61 4.93C18.65 4.93 18.93 5.63 18.93 6.99C18.93 8.34 18.65 9.07 17.61 9.07ZM27.26 3.70C27.26 3.70 25.55 3.35 24.54 3.35C23.07 3.35 21.84 4.00 21.84 5.63C21.84 7.17 22.64 7.53 24.15 7.78C25.44 7.99 25.59 8.13 25.59 8.44C25.59 8.81 25.35 8.99 24.46 8.99C23.74 8.99 22.01 8.76 22.01 8.76L21.95 10.33C21.95 10.33 23.60 10.67 24.64 10.67C26.39 10.67 27.45 10.04 27.45 8.40C27.45 6.99 26.88 6.51 25.26 6.22C23.97 5.98 23.70 5.91 23.70 5.59C23.70 5.21 23.87 5.03 24.68 5.03C25.49 5.03 27.23 5.25 27.23 5.25ZM31.67 3.33C29.23 3.33 28.45 4.83 28.45 6.99C28.45 9.14 29.23 10.67 31.67 10.67C34.10 10.67 34.89 9.14 34.89 6.99C34.89 4.83 34.10 3.33 31.67 3.33ZM31.67 9.07C30.63 9.07 30.35 8.34 30.35 6.99C30.35 5.63 30.63 4.93 31.67 4.93C32.70 4.93 32.98 5.63 32.98 6.99C32.98 8.34 32.70 9.07 31.67 9.07ZM35.73 3.50L37.06 10.50L40.00 10.50L40.80 6.22L41.59 10.50L44.53 10.50L45.86 3.50L44.02 3.50L43.16 8.90L42.83 8.90L41.76 3.64L39.83 3.64L38.77 8.90L38.43 8.90L37.58 3.50ZM52.43 5.68C52.43 4.05 51.70 3.33 49.88 3.33C48.54 3.33 47.04 3.74 47.04 3.74L47.10 5.04C47.10 5.04 48.80 4.93 49.73 4.93C50.29 4.93 50.55 5.08 50.55 5.68L50.55 6.12L49.06 6.23C47.52 6.34 46.61 6.79 46.61 8.37C46.61 9.86 47.31 10.67 48.78 10.67C49.83 10.67 50.83 10.18 50.83 10.18C51.42 10.57 51.90 10.67 52.84 10.67L52.89 9.25C52.51 9.18 52.46 9.02 52.43 8.60ZM50.55 7.42L50.55 8.92C50.55 8.92 49.78 9.14 49.18 9.14C48.68 9.14 48.50 8.81 48.50 8.32C48.50 7.81 48.79 7.57 49.28 7.53ZM60.68 10.50C64.09 10.50 64.72 8.81 64.72 5.56C64.72 2.39 63.99 0.98 60.68 0.98L57.47 0.98L57.47 10.50ZM62.73 5.56C62.73 7.67 62.55 8.82 60.68 8.82L59.40 8.82L59.40 2.66L60.68 2.66C62.55 2.66 62.73 3.47 62.73 5.56ZM65.59 3.50L67.31 10.50L68.63 10.50L67.86 13.44L69.69 13.44L72.16 3.50L70.31 3.50L69.03 8.90L68.71 8.90L67.44 3.50ZM78.19 3.70C78.19 3.70 76.48 3.35 75.47 3.35C74.00 3.35 72.77 4.00 72.77 5.63C72.77 7.17 73.57 7.53 75.08 7.78C76.37 7.99 76.52 8.13 76.52 8.44C76.52 8.81 76.29 8.99 75.39 8.99C74.68 8.99 72.94 8.76 72.94 8.76L72.88 10.33C72.88 10.33 74.54 10.67 75.57 10.67C77.32 10.67 78.39 10.04 78.39 8.40C78.39 6.99 77.81 6.51 76.19 6.22C74.90 5.98 74.63 5.91 74.63 5.59C74.63 5.21 74.80 5.03 75.61 5.03C76.43 5.03 78.16 5.25 78.16 5.25ZM81.62 10.50L81.62 7.90L82.39 7.77L83.80 10.50L85.92 10.50L84 6.82L85.82 3.50L83.72 3.50L82.33 6.15L81.62 6.27L81.62 0.70L79.74 0.70L79.74 10.50ZM91.08 3.50L91.08 8.74C91.08 8.74 90.44 8.99 89.74 8.99C88.82 8.99 88.76 8.44 88.76 7.20L88.76 3.50L86.88 3.50L86.88 7.17C86.88 9.53 87.30 10.67 89.35 10.67C90.09 10.67 91.10 10.11 91.10 10.11L91.10 10.50L92.96 10.50L92.96 3.50ZM99.75 3.70C99.75 3.70 98.04 3.35 97.03 3.35C95.56 3.35 94.33 4.00 94.33 5.63C94.33 7.17 95.13 7.53 96.64 7.78C97.93 7.99 98.08 8.13 98.08 8.44C98.08 8.81 97.85 8.99 96.95 8.99C96.24 8.99 94.50 8.76 94.50 8.76L94.44 10.33C94.44 10.33 96.10 10.67 97.13 10.67C98.88 10.67 99.95 10.04 99.95 8.40C99.95 6.99 99.37 6.51 97.75 6.22C96.46 5.98 96.19 5.91 96.19 5.59C96.19 5.21 96.36 5.03 97.17 5.03C97.99 5.03 99.72 5.25 99.72 5.25ZM101.32 10.16C101.32 11.35 101.11 11.58 99.96 12.33L100.70 13.72C102.65 12.74 103.19 12.12 103.19 10.18L103.19 3.50L101.32 3.50ZM101.32 2.60L103.19 2.60L103.19 0.70L101.32 0.70ZM110.29 5.68C110.29 4.05 109.56 3.33 107.74 3.33C106.40 3.33 104.90 3.74 104.90 3.74L104.96 5.04C104.96 5.04 106.67 4.93 107.59 4.93C108.15 4.93 108.42 5.08 108.42 5.68L108.42 6.12L106.92 6.23C105.38 6.34 104.47 6.79 104.47 8.37C104.47 9.86 105.17 10.67 106.64 10.67C107.69 10.67 108.70 10.18 108.70 10.18C109.28 10.57 109.76 10.67 110.70 10.67L110.75 9.25C110.38 9.18 110.32 9.02 110.29 8.60ZM108.42 7.42L108.42 8.92C108.42 8.92 107.65 9.14 107.04 9.14C106.54 9.14 106.36 8.81 106.36 8.32C106.36 7.81 106.65 7.57 107.14 7.53ZM118.02 3.33C115.58 3.33 114.80 4.83 114.80 6.99C114.80 9.14 115.58 10.67 118.02 10.67C120.46 10.67 121.24 9.14 121.24 6.99C121.24 4.83 120.46 3.33 118.02 3.33ZM118.02 9.07C116.98 9.07 116.70 8.34 116.70 6.99C116.70 5.63 116.98 4.93 118.02 4.93C119.06 4.93 119.34 5.63 119.34 6.99C119.34 8.34 119.06 9.07 118.02 9.07ZM132.44 8.41L132.44 6.85L131.10 6.85L131.10 5.08L132.44 5.08L132.44 3.51L131.10 3.51L131.10 1.26L129.47 1.26L129.47 3.51L128.02 3.51L128.02 1.26L126.39 1.26L126.39 3.51L125.05 3.51L125.05 5.08L126.39 5.08L126.39 6.85L125.05 6.85L125.05 8.41L126.39 8.41L126.39 10.50L128.02 10.50L128.02 8.41L129.47 8.41L129.47 10.50L131.10 10.50L131.10 8.41ZM129.47 6.85L128.02 6.85L128.02 5.08L129.47 5.08ZM133.70 10.50L135.63 10.50L135.63 0.98L133.70 0.98ZM136.85 2.69L139.40 2.69L139.40 10.50L141.33 10.50L141.33 2.69L143.85 2.69L143.85 0.98L136.85 0.98Z"></path></g></svg>