<svg data-v-fde0c5aa="" xmlns="http://www.w3.org/2000/svg" viewBox="0 0 300 300" class="font"><!----><defs data-v-fde0c5aa=""><!----></defs><rect data-v-fde0c5aa="" fill="white" x="0" y="0" width="300px" height="300px" class="logo-background-square"></rect><defs data-v-fde0c5aa=""><linearGradient data-v-fde0c5aa="" gradientTransform="rotate(25)" id="993b3d21-cfc1-4b7b-9a6f-76c170466366" x1="0%" y1="0%" x2="100%" y2="0%"><stop data-v-fde0c5aa="" offset="0%" stop-color="#FFFE00" stop-opacity="1"></stop><stop data-v-fde0c5aa="" offset="100%" stop-color="#FFC500" stop-opacity="1"></stop></linearGradient></defs><g data-v-fde0c5aa="" id="b767a4a8-2773-48df-9a96-a334ac0c1540" fill="url(#993b3d21-cfc1-4b7b-9a6f-76c170466366)" transform="matrix(3.0525877475738525,0,0,3.0525877475738525,36.82530883062988,128.41820481772396)"><path d="M4.24 10.50C7.66 10.50 8.29 8.81 8.29 5.56C8.29 2.39 7.56 0.98 4.24 0.98L1.04 0.98L1.04 10.50ZM6.30 5.56C6.30 7.67 6.12 8.82 4.24 8.82L2.97 8.82L2.97 2.66L4.24 2.66C6.12 2.66 6.30 3.47 6.30 5.56ZM15.16 5.68C15.16 4.05 14.43 3.33 12.61 3.33C11.27 3.33 9.77 3.74 9.77 3.74L9.83 5.04C9.83 5.04 11.54 4.93 12.46 4.93C13.02 4.93 13.29 5.08 13.29 5.68L13.29 6.12L11.79 6.23C10.25 6.34 9.34 6.79 9.34 8.37C9.34 9.86 10.04 10.67 11.51 10.67C12.56 10.67 13.57 10.18 13.57 10.18C14.15 10.57 14.63 10.67 15.57 10.67L15.62 9.25C15.25 9.18 15.19 9.02 15.16 8.60ZM13.29 7.42L13.29 8.92C13.29 8.92 12.52 9.14 11.91 9.14C11.41 9.14 11.23 8.81 11.23 8.32C11.23 7.81 11.52 7.57 12.01 7.53ZM16.95 10.50L18.83 10.50L18.83 3.50L16.95 3.50ZM16.95 2.60L18.83 2.60L18.83 0.70L16.95 0.70ZM20.65 10.50L22.53 10.50L22.53 0.70L20.65 0.70ZM23.70 3.50L25.42 10.50L26.74 10.50L25.97 13.44L27.80 13.44L30.27 3.50L28.42 3.50L27.15 8.90L26.82 8.90L25.55 3.50ZM30.90 10.50L32.91 10.50L32.91 8.18L30.90 8.18ZM37.18 3.33C35.10 3.33 34.23 4.45 34.23 6.93C34.23 9.56 35.06 10.67 37.14 10.67C37.93 10.67 39.42 10.37 39.42 10.37L39.37 8.88C39.37 8.88 38.28 8.99 37.74 8.99C36.40 8.99 36.13 8.50 36.13 6.93C36.13 5.53 36.39 5.01 37.73 5.01C38.26 5.01 39.37 5.12 39.37 5.12L39.42 3.64C39.42 3.64 38.00 3.33 37.18 3.33ZM43.61 3.33C41.17 3.33 40.39 4.83 40.39 6.99C40.39 9.14 41.17 10.67 43.61 10.67C46.05 10.67 46.83 9.14 46.83 6.99C46.83 4.83 46.05 3.33 43.61 3.33ZM43.61 9.07C42.57 9.07 42.29 8.34 42.29 6.99C42.29 5.63 42.57 4.93 43.61 4.93C44.65 4.93 44.93 5.63 44.93 6.99C44.93 8.34 44.65 9.07 43.61 9.07ZM50.08 10.50L50.08 5.26C50.08 5.26 50.71 5.01 51.32 5.01C52.19 5.01 52.30 5.64 52.30 6.90L52.30 10.50L54.18 10.50L54.18 6.87C54.18 6.33 54.12 5.28 54.12 5.28C54.12 5.28 54.87 5.01 55.43 5.01C56.27 5.01 56.41 5.70 56.41 6.76L56.41 10.50L58.28 10.50L58.28 6.71C58.28 4.45 57.72 3.33 55.82 3.33C54.75 3.33 53.47 3.99 53.47 3.99C53.05 3.54 52.50 3.33 51.72 3.33C51.03 3.33 50.06 3.89 50.06 3.89L50.06 3.50L48.20 3.50L48.20 10.50ZM59.86 10.50L61.88 10.50L61.88 8.18L59.86 8.18ZM63.53 13.44L65.41 13.44L65.41 10.56C65.41 10.56 66.05 10.67 66.57 10.67C68.71 10.67 69.75 9.93 69.75 6.94C69.75 4.34 68.84 3.33 66.99 3.33C66.30 3.33 65.39 3.88 65.39 3.88L65.39 3.50L63.53 3.50ZM66.63 5.01C67.37 5.01 67.84 5.53 67.84 6.94C67.84 8.43 67.55 9.04 66.43 9.04C66.04 9.04 65.41 8.96 65.41 8.96L65.41 5.29C65.41 5.29 66.05 5.01 66.63 5.01ZM71.23 10.50L73.11 10.50L73.11 0.70L71.23 0.70Z"></path></g><!----><!----></svg>